<svg xmlns="http://www.w3.org/2000/svg" width="1200" height="720" viewBox="0 0 1200 720" role="img" aria-labelledby="title desc">
  <title id="title">Dashboard UI placeholder</title>
  <desc id="desc">A placeholder screenshot for the lightweight market data pipeline dashboard.</desc>
  <rect width="1200" height="720" fill="#eef2f6"/>
  <text x="70" y="72" font-family="Arial, sans-serif" font-size="34" font-weight="700" fill="#111827">AI-Powered Market Data Pipeline</text>
  <text x="70" y="108" font-family="Arial, sans-serif" font-size="16" fill="#64748b">Dashboard UI screenshot placeholder</text>
  <g>
    <rect x="70" y="145" width="245" height="110" rx="8" fill="#ffffff" stroke="#cbd5e1"/>
    <rect x="335" y="145" width="245" height="110" rx="8" fill="#ffffff" stroke="#cbd5e1"/>
    <rect x="600" y="145" width="245" height="110" rx="8" fill="#ffffff" stroke="#cbd5e1"/>
    <rect x="865" y="145" width="265" height="110" rx="8" fill="#ffffff" stroke="#cbd5e1"/>
    <text x="94" y="184" font-family="Arial, sans-serif" font-size="13" font-weight="700" fill="#64748b">TRACKED TICKERS</text>
    <text x="94" y="225" font-family="Arial, sans-serif" font-size="32" font-weight="700" fill="#0f172a">10</text>
    <text x="359" y="184" font-family="Arial, sans-serif" font-size="13" font-weight="700" fill="#64748b">LATEST RUN</text>
    <text x="359" y="225" font-family="Arial, sans-serif" font-size="24" font-weight="700" fill="#0f172a">May 28</text>
    <text x="624" y="184" font-family="Arial, sans-serif" font-size="13" font-weight="700" fill="#64748b">SIGNALS</text>
    <text x="624" y="225" font-family="Arial, sans-serif" font-size="28" font-weight="700" fill="#0f172a">3 / 5 / 2</text>
    <text x="889" y="184" font-family="Arial, sans-serif" font-size="13" font-weight="700" fill="#64748b">DATABASE</text>
    <text x="889" y="225" font-family="Arial, sans-serif" font-size="28" font-weight="700" fill="#0f172a">online</text>
  </g>
  <rect x="70" y="285" width="510" height="210" rx="8" fill="#ffffff" stroke="#cbd5e1"/>
  <rect x="620" y="285" width="510" height="210" rx="8" fill="#ffffff" stroke="#cbd5e1"/>
  <text x="100" y="330" font-family="Arial, sans-serif" font-size="20" font-weight="700" fill="#111827">Signal Distribution</text>
  <rect x="100" y="365" width="360" height="16" rx="8" fill="#e5e7eb"/>
  <rect x="100" y="365" width="170" height="16" rx="8" fill="#059669"/>
  <rect x="100" y="410" width="360" height="16" rx="8" fill="#e5e7eb"/>
  <rect x="100" y="410" width="260" height="16" rx="8" fill="#64748b"/>
  <rect x="100" y="455" width="360" height="16" rx="8" fill="#e5e7eb"/>
  <rect x="100" y="455" width="110" height="16" rx="8" fill="#dc2626"/>
  <text x="650" y="330" font-family="Arial, sans-serif" font-size="20" font-weight="700" fill="#111827">Momentum Ranking</text>
  <rect x="650" y="365" width="360" height="16" rx="8" fill="#e5e7eb"/>
  <rect x="650" y="365" width="300" height="16" rx="8" fill="#059669"/>
  <rect x="650" y="410" width="360" height="16" rx="8" fill="#e5e7eb"/>
  <rect x="650" y="410" width="180" height="16" rx="8" fill="#059669"/>
  <rect x="650" y="455" width="360" height="16" rx="8" fill="#e5e7eb"/>
  <rect x="650" y="455" width="220" height="16" rx="8" fill="#dc2626"/>
  <rect x="70" y="525" width="1060" height="135" rx="8" fill="#ffffff" stroke="#cbd5e1"/>
  <text x="100" y="570" font-family="Arial, sans-serif" font-size="20" font-weight="700" fill="#111827">Signal Ranking Table</text>
  <line x1="100" y1="598" x2="1100" y2="598" stroke="#dbe3ef"/>
  <text x="100" y="632" font-family="Arial, sans-serif" font-size="16" fill="#334155">NVDA</text>
  <text x="250" y="632" font-family="Arial, sans-serif" font-size="16" fill="#334155">$128.50</text>
  <text x="430" y="632" font-family="Arial, sans-serif" font-size="16" fill="#047857">bullish</text>
  <text x="610" y="632" font-family="Arial, sans-serif" font-size="16" fill="#334155">2</text>
  <text x="780" y="632" font-family="Arial, sans-serif" font-size="16" fill="#334155">42.1%</text>
</svg>

