<svg xmlns="http://www.w3.org/2000/svg" width="1200" height="420" viewBox="0 0 1200 420" role="img" aria-labelledby="title desc">
  <title id="title">Pipeline flow placeholder</title>
  <desc id="desc">A clean diagram placeholder for the AI-powered market data pipeline.</desc>
  <rect width="1200" height="420" fill="#f8fafc"/>
  <rect x="40" y="60" width="1120" height="300" rx="8" fill="#ffffff" stroke="#cbd5e1"/>
  <text x="60" y="105" font-family="Arial, sans-serif" font-size="28" font-weight="700" fill="#0f172a">AI-Powered Market Data Pipeline</text>
  <g font-family="Arial, sans-serif" font-size="16" fill="#0f172a">
    <rect x="70" y="170" width="135" height="72" rx="6" fill="#e0f2fe" stroke="#0284c7"/>
    <text x="92" y="201">yfinance</text>
    <text x="92" y="224">Data Source</text>
    <rect x="245" y="170" width="135" height="72" rx="6" fill="#ecfdf5" stroke="#059669"/>
    <text x="270" y="201">Ingestion</text>
    <text x="270" y="224">Layer</text>
    <rect x="420" y="170" width="135" height="72" rx="6" fill="#fefce8" stroke="#ca8a04"/>
    <text x="452" y="201">DuckDB</text>
    <text x="448" y="224">Storage</text>
    <rect x="595" y="170" width="135" height="72" rx="6" fill="#f5f3ff" stroke="#7c3aed"/>
    <text x="624" y="201">SQL +</text>
    <text x="612" y="224">Features</text>
    <rect x="770" y="170" width="135" height="72" rx="6" fill="#fff7ed" stroke="#ea580c"/>
    <text x="803" y="201">Signal</text>
    <text x="794" y="224">Analytics</text>
    <rect x="945" y="130" width="135" height="72" rx="6" fill="#eef2ff" stroke="#4f46e5"/>
    <text x="978" y="161">AI</text>
    <text x="967" y="184">Insights</text>
    <rect x="945" y="250" width="135" height="72" rx="6" fill="#f1f5f9" stroke="#475569"/>
    <text x="973" y="281">Reports</text>
    <text x="982" y="304">API</text>
  </g>
  <g stroke="#64748b" stroke-width="3" fill="none" marker-end="url(#arrow)">
    <path d="M205 206 L245 206"/>
    <path d="M380 206 L420 206"/>
    <path d="M555 206 L595 206"/>
    <path d="M730 206 L770 206"/>
    <path d="M905 190 L945 166"/>
    <path d="M905 222 L945 286"/>
    <path d="M1012 202 L1012 250"/>
  </g>
  <defs>
    <marker id="arrow" markerWidth="10" markerHeight="10" refX="8" refY="3" orient="auto">
      <path d="M0,0 L0,6 L9,3 z" fill="#64748b"/>
    </marker>
  </defs>
</svg>

